# xmcd
#
# Track frame offsets: 
#        150
#        13341
#        34055
#        53548
#        67514
#        85927
#        99484
#        113293
#        131951
#        147743
#        160913
#        169416
#        186570
#
# Disc length: 2746 seconds
#
# Revision: 1
# Processed by: cddbd v1.5.2PL0 Copyright (c) Steve Scherf et al.
# Submitted via: ExactAudioCopy v1.3
#
DISCID=b10ab80d
DTITLE=The Delta Saints - Death Letter Jubilee
DYEAR=2012
DGENRE=Modern Electric Blues, Delta Blues
TTITLE0=Liar
TTITLE1=Chicago
TTITLE2=Death Letter Jubilee
TTITLE3=Jezebel
TTITLE4=Boogie
TTITLE5=Out To Sea
TTITLE6=Sing To Me
TTITLE7=Drink It Slow
TTITLE8=From The Dirt
TTITLE9=The Devils Creek
TTITLE10=River
TTITLE11=Old Man
TTITLE12=Jericho
EXTD=
EXTT0=
EXTT1=
EXTT2=
EXTT3=
EXTT4=
EXTT5=
EXTT6=
EXTT7=
EXTT8=
EXTT9=
EXTT10=
EXTT11=
EXTT12=
PLAYORDER=
